<svg xmlns="http://www.w3.org/2000/svg" viewBox="0 0 210.9 84.9" enable-background="new 0 0 210.9 84.9"><style>.st0{fill-rule:evenodd;clip-rule:evenodd;fill:url(#SVGID_1_)}.st1{fill:url(#SVGID_2_)}.st1,.st2{fill-rule:evenodd;clip-rule:evenodd}.st2{fill:#ee2324}.st3{fill:#0098d6}.st3,.st4{fill-rule:evenodd;clip-rule:evenodd}.st4{fill:#ed2626}.st5{fill:#ee2324}.st6{filter:url(#Adobe_OpacityMaskFilter)}.st7{filter:url(#Adobe_OpacityMaskFilter_1_)}.st8{mask:url(#SVGID_3_);fill:url(#SVGID_4_)}.st9{fill:url(#SVGID_5_)}.st10{fill:#ed2626}.st11{fill:#fff}</style><g id="Layer_1"><linearGradient id="SVGID_1_" gradientUnits="userSpaceOnUse" x1="104.352" y1="45.028" x2="104.352" y2="23.311"><stop offset="0" stop-color="#f37324"/><stop offset="1" stop-color="#ef3a42"/></linearGradient><path class="st0" d="M107.4 42.4c3.3-5.5-1.7-9.3-1.6-16.2-2.2 2.2-8.4 10.3-4 15.9-.2-3.1 1.9-6.6 2.8-7.8.3 3.5 2.5 5.5 2.8 8.1z"/><radialGradient id="SVGID_2_" cx="105.026" cy="41.376" r="3.469" gradientUnits="userSpaceOnUse"><stop offset="0" stop-color="#febd3b"/><stop offset="1" stop-color="#f37324"/></radialGradient><path class="st1" d="M105.3 44.9c.9-.9 1.5-1.7 2-2.5 1.3-3-2.5-4.6-2.8-8.1-.9 1.2-4.1 4.7-2.8 7.8.8 1 2 2 3.6 2.8z"/></g><path class="st2" d="M45 13.8h29.8c2.2.6 8.1 2.4 12.8 8 6.3 7.5 5.7 16.3 5.5 18.1-.2 2-1.1 8.3-6.3 13.7-4.3 4.4-9.1 5.9-11.2 6.4 7 8.1 14.1 16.2 21.1 24.4-5.2.1-10.5.1-15.7.2-8.5-9.9-17-19.7-25.5-29.6l11.1-1.2c.9-.2 8.3-1.9 11.7-9.1.5-1 3.4-7.6-.3-13.9-2.4-4.1-6.1-5.8-7.4-6.3l-14.9.3c-1.4 8.4-2.8 16.8-4.2 25.1-3.3-3.7-6.6-7.4-9.8-11.1 1.2-8.3 2.3-16.6 3.3-25z" id="Layer_2"/><g id="Layer_3"><path class="st3" d="M35.2 78.8c.1-1 .3-1.9.4-2.9 1.6-10.8 3.3-21.5 5.1-32.1 10.1 11.7 20.3 23.3 30.4 35-4.1 0-8.2-.1-12.3-.1-3.8-4.7-7.5-9.3-11.3-14-.9 4.7-1.9 9.3-2.8 14-3.2.1-6.4.1-9.5.1zm-6.7-68.5h10.3c-.1.9-.2 1.8-.4 2.7-3.7 22.3-7.3 44.6-11 66.9H16.9c3.9-23.2 7.7-46.4 11.6-69.6zm7.1 70.6l-.4 2.7h.4zM8.8 23.1c0 3.6 2.5 6.7 6 7.4 3.6.7 7.2-1.4 8.4-4.9-2.1 6.1-4.2 12.7-5.9 19.9-3.1 12.6-4.9 24.2-5.8 34.5H1.6C4 68.8 6 56.6 7.4 43.3c.6-7.1 1.1-13.8 1.4-20.2z"/><path class="st3" d="M90.8.2v10.5H0V0c30.3.1 60.6.1 90.8.2z"/><path class="st4" d="M75 84.8c-25 0-50 .1-75 .1.2-1.3.4-2.7.6-4h71c1.1 1.3 2.3 2.6 3.4 3.9z"/><path class="st5" d="M108.5 84H101V48.5h7.5V84zm16.6-36.1c1.3 0 2.5.1 3.6.3 1.1.2 2 .4 2.7.7.8.3 1.4.5 1.9.8.5.3.9.4 1.2.5l-1.7 5.4c-.3-.1-.7-.3-1.2-.5s-1-.5-1.6-.7c-.6-.2-1.3-.4-2-.6-.7-.2-1.4-.3-2.2-.3-.8 0-1.5.1-2.1.4-.6.3-1.1.6-1.4 1-.4.4-.6.8-.8 1.3-.2.5-.2.9-.2 1.2 0 1.1.3 2 1 2.8.7.8 1.5 1.5 2.5 2.2 1 .7 2.1 1.3 3.2 2s2.2 1.5 3.2 2.3c1 .9 1.8 1.9 2.5 3 .7 1.2 1 2.6 1 4.2 0 3.4-1 6-3 7.9-2 1.9-4.9 2.8-8.8 2.8-1.4 0-2.6-.1-3.6-.4-1.1-.2-2-.5-2.8-.8-.8-.3-1.5-.6-2-.9-.6-.3-1-.5-1.3-.6l1.7-5.4c.3.1.6.3 1.1.5.5.2 1 .5 1.7.7.6.2 1.3.4 2 .6.7.2 1.4.3 2.2.3.6 0 1.3-.1 1.9-.2.6-.2 1.2-.4 1.7-.7.5-.3.9-.7 1.2-1.2.3-.5.5-1.1.5-1.8 0-1-.3-1.9-1-2.6-.7-.7-1.5-1.4-2.5-2-1-.6-2.1-1.3-3.2-2-1.2-.7-2.2-1.5-3.2-2.4-1-.9-1.8-1.9-2.5-3.2-.7-1.2-1-2.7-1-4.4 0-3.2 1-5.7 3-7.5 1.9-1.8 4.7-2.7 8.3-2.7zM139.4 84V48.5h19.2v6.1H147v8.2h8.8v5.7H147v9.4h11.6V84h-19.2zm24.2-35.5c.9 0 2.3-.1 4.1-.2 1.8-.1 3.6-.2 5.5-.2 4.3 0 7.6.9 9.7 2.6 2.1 1.7 3.2 4.7 3.2 8.9 0 1.4-.2 2.7-.5 3.8-.3 1.1-.8 2-1.3 2.9-.6.8-1.2 1.5-1.9 2s-1.5.9-2.2 1.2l6.9 14.4h-7.9l-5.7-13.5c-.7 0-1.3 0-1.8-.1-.5 0-.8-.1-1-.1V84h-7.1V48.5zm10.5 16.6c1.4 0 2.5-.5 3.3-1.4.8-.9 1.2-2.3 1.2-4.2 0-1.9-.4-3.3-1.1-4.3-.8-.9-2-1.4-3.7-1.4h-1.4c-.5 0-1 0-1.5.1V65c.3 0 .7 0 1.4.1h1.8zm27.2-17.2c1.3 0 2.5.1 3.6.3 1.1.2 2 .4 2.7.7.8.3 1.4.5 1.9.8.5.3.9.4 1.2.5l-1.7 5.4c-.3-.1-.7-.3-1.2-.5s-1-.5-1.6-.7c-.6-.2-1.3-.4-2-.6-.7-.2-1.4-.3-2.2-.3-.8 0-1.5.1-2.1.4-.6.3-1.1.6-1.4 1-.4.4-.6.8-.8 1.3-.2.5-.2.9-.2 1.2 0 1.1.3 2 1 2.8.7.8 1.5 1.5 2.5 2.2 1 .7 2.1 1.3 3.2 2s2.2 1.5 3.2 2.3c1 .9 1.8 1.9 2.5 3 .7 1.2 1 2.6 1 4.2 0 3.4-1 6-3 7.9-2 1.9-4.9 2.8-8.8 2.8-1.4 0-2.6-.1-3.6-.4-1.1-.2-2-.5-2.8-.8-.8-.3-1.5-.6-2-.9-.6-.3-1-.5-1.3-.6l1.7-5.4c.3.1.6.3 1.1.5.5.2 1 .5 1.7.7.6.2 1.3.4 2 .6.7.2 1.4.3 2.2.3.6 0 1.3-.1 1.9-.2.6-.2 1.2-.4 1.7-.7.5-.3.9-.7 1.2-1.2.3-.5.5-1.1.5-1.8 0-1-.3-1.9-1-2.6-.7-.7-1.5-1.4-2.5-2s-2.1-1.3-3.2-2c-1.2-.7-2.2-1.5-3.2-2.4-1-.9-1.8-1.9-2.5-3.2-.7-1.2-1-2.7-1-4.4 0-3.2 1-5.7 3-7.5 2-1.8 4.8-2.7 8.3-2.7z"/><defs><filter id="Adobe_OpacityMaskFilter" filterUnits="userSpaceOnUse" x="12.6" y="22.6" width="7.8" height="5"><feFlood result="back" flood-color="#fff" flood-opacity="1"/><feBlend in="SourceGraphic" in2="back"/></filter></defs><mask maskUnits="userSpaceOnUse" x="12.6" y="22.6" width="7.8" height="5" id="SVGID_3_"><g class="st6"><defs><filter id="Adobe_OpacityMaskFilter_1_" filterUnits="userSpaceOnUse" x="12.6" y="22.6" width="7.8" height="5"><feFlood result="back" flood-color="#fff" flood-opacity="1"/><feBlend in="SourceGraphic" in2="back"/></filter></defs><radialGradient id="SVGID_4_" cx="209.436" cy="13.455" r="5.606" gradientTransform="matrix(-.9405 -.001 .00106 -1 213.594 35.664)" gradientUnits="userSpaceOnUse"><stop offset=".558" stop-color="#0d0d0d"/><stop offset=".654" stop-color="#0f0f0f"/><stop offset=".715" stop-color="#181818"/><stop offset=".766" stop-color="#272727"/><stop offset=".812" stop-color="#3b3b3b"/><stop offset=".854" stop-color="#565656"/><stop offset=".893" stop-color="#777"/><stop offset=".931" stop-color="#9f9f9f"/><stop offset=".966" stop-color="#cbcbcb"/><stop offset=".999" stop-color="#fdfdfd"/><stop offset="1" stop-color="#FFF"/></radialGradient><ellipse class="st8" cx="16.5" cy="25.1" rx="3.9" ry="2.5"/></g></mask><radialGradient id="SVGID_5_" cx="209.436" cy="13.455" r="5.606" gradientTransform="matrix(-.9405 -.001 .00106 -1 213.594 35.664)" gradientUnits="userSpaceOnUse"><stop offset=".558" stop-color="#FFF"/><stop offset=".941" stop-color="#FFF"/><stop offset="1" stop-color="#FFF"/></radialGradient><ellipse class="st9" cx="16.5" cy="25.1" rx="3.9" ry="2.5"/><circle class="st10" cx="16.3" cy="22.3" r="6.5"/><path class="st11" d="M15 22.1V26h2.9v-3.8h1.7l-2.9-4-3.4 3.9H15z"/></g></svg>